<?xml version="1.0" encoding="UTF-8" standalone="no"?>
<!-- Created with Inkscape (http://www.inkscape.org/) -->

<svg
   version="1.1"
   id="svg1"
   width="530.98273"
   height="1040.4719"
   viewBox="0 0 530.98273 1040.472"
   sodipodi:docname="Pine4d.svg"
   inkscape:version="1.3.2 (091e20ef0f, 2023-11-25)"
   xmlns:inkscape="http://www.inkscape.org/namespaces/inkscape"
   xmlns:sodipodi="http://sodipodi.sourceforge.net/DTD/sodipodi-0.dtd"
   xmlns="http://www.w3.org/2000/svg"
   xmlns:svg="http://www.w3.org/2000/svg">
  <defs
     id="defs1" />
  <sodipodi:namedview
     id="namedview1"
     pagecolor="#ffffff"
     bordercolor="#000000"
     borderopacity="0.25"
     inkscape:showpageshadow="2"
     inkscape:pageopacity="0.0"
     inkscape:pagecheckerboard="0"
     inkscape:deskcolor="#d1d1d1"
     showgrid="false"
     inkscape:zoom="0.7556321"
     inkscape:cx="252.76851"
     inkscape:cy="518.10928"
     inkscape:window-width="1920"
     inkscape:window-height="1011"
     inkscape:window-x="0"
     inkscape:window-y="0"
     inkscape:window-maximized="1"
     inkscape:current-layer="layer2" />
  <g
     inkscape:groupmode="layer"
     id="layer2"
     inkscape:label="Layer 1"
     transform="translate(-46.338658,-13.998833)">
    <path
       style="fill:#aa4400"
       d="m 291.08379,1053.1286 c -3.79555,-0.8515 -6.93797,-2.7958 -9.81556,-6.0732 -3.80547,-4.3342 -4.15683,-5.4382 -3.48126,-10.9381 0.41326,-3.3646 1.65995,-9.3198 2.77041,-13.2339 4.41651,-15.5672 6.12941,-94.75102 3.42253,-158.2168 -1.51657,-35.55769 -3.30635,-51.3682 -6.05409,-53.48032 -1.0592,-0.81418 -1.92581,-1.92282 -1.92581,-2.46365 0,-0.54083 3.21491,-5.57468 7.14424,-11.18634 3.92933,-5.61166 10.67933,-16.43565 15,-24.05332 8.78071,-15.48105 16.84205,-25.48303 20.53867,-25.48303 3.68333,0 10.14273,8.70749 14.81825,19.97547 2.28775,5.51349 5.79914,13.32453 7.80307,17.35786 4.59261,9.24356 5.70742,15.9009 3.23005,19.28891 -1.02719,1.40476 -1.86761,4.23943 -1.86761,6.29926 0,2.3494 -0.70684,3.74516 -1.8966,3.74516 -5.39323,0 -6.49164,21.07972 -4.74224,91.00879 0.75664,30.24516 1.93119,68.60764 2.61012,85.24994 1.18632,29.07957 1.36681,30.46847 4.63157,35.64017 4.50077,7.1297 4.67024,16.5505 0.39053,21.7094 -2.68175,3.2326 -4.34131,3.7531 -15.94083,5 -15.30056,1.6446 -28.89407,1.5903 -36.63544,-0.1463 z"
       id="path1" />
    <path
       style="display:inline;fill:#008000"
       d="m 153.6224,876.58566 c -1.63403,-1.14452 -3.88294,-3.84452 -4.99758,-6 -2.47854,-4.79296 -6.21421,-5.06353 -17.29148,-1.25239 -8.53983,2.93813 -20.08252,3.48316 -25.12357,1.1863 -4.36005,-1.98657 -6.233622,-6.49878 -4.99186,-12.02213 1.71251,-7.61724 1.30807,-7.82897 -14.995685,-7.85049 -17.903465,-0.0236 -21.380754,-1.30641 -21.954756,-8.09909 -0.328987,-3.8932 0.667685,-6.09803 5.666667,-12.53573 3.336227,-4.2964 6.065867,-8.88588 6.065867,-10.19885 0,-2.4378 -3.581913,-7.0828 -15.012925,-19.46864 -14.990946,-16.24313 -19.831826,-40.3447 -8.103367,-40.3447 1.773121,0 14.149655,2.74916 27.503408,6.10925 32.952321,8.29149 42.985751,9.93486 61.108251,10.00885 11.30101,0.0461 18.69972,-0.69689 27.33333,-2.74501 27.95046,-6.63056 65.7891,-31.51203 65.82919,-43.28715 0.005,-1.4194 -1.20398,-3.87166 -2.68625,-5.44946 -1.56943,-1.67059 -3.30245,-6.31711 -4.14938,-11.12522 -1.79406,-10.18501 -2.30488,-9.89715 -13.88038,7.82208 -13.00409,19.90605 -24.13764,29.41121 -32.10699,27.41103 -4.58931,-1.15185 -7.1001,-7.29229 -8.19534,-20.04273 l -0.97288,-11.32588 -12,10.71134 c -13.03417,11.63445 -25.1673,18.51271 -34.51457,19.56628 -5.10703,0.57564 -6.43565,0.18429 -9.38406,-2.76413 -5.43706,-5.43706 -4.40653,-10.0331 6.4776,-28.88924 3.1747,-5.5 6.12307,-11.52433 6.55192,-13.3874 1.305,-5.66931 -3.10683,-10.90624 -13.95448,-16.56428 -20.708417,-10.80133 -29.17641,-19.18454 -29.17641,-28.8843 0,-8.94234 6.949447,-11.24072 50,-16.5364 19.19674,-2.3614 28.4557,-4.03622 29.44941,-5.32701 1.93797,-2.51733 6.24774,-23.33858 5.67302,-27.40735 l -0.45576,-3.22659 h -18.05493 c -15.03769,0 -18.6585,-0.39507 -21.66667,-2.36407 -7.43472,-4.86641 -3.52762,-12.10287 13.48139,-24.96926 l 4.40657,-3.33333 -10.23083,-7.85318 c -11.90265,-9.13647 -17.93553,-17.59104 -17.93553,-25.13513 0,-10.23916 6.16063,-12.933 36,-15.74159 19.23552,-1.81052 38.43425,-5.62126 50.97823,-10.11863 14.94742,-5.35908 35.51418,-17.84316 38.4583,-23.34428 1.22309,-2.28537 0.63245,-2.42468 -9.01531,-2.12639 l -10.32414,0.3192 -3.27193,-5 c -3.78216,-5.77972 -5.44814,-6.0979 -10.8843,-2.07877 -7.10894,5.25586 -20.45702,3.11445 -28.94085,-4.64294 -2.32578,-2.12664 -3,-4.20403 -3,-9.24358 0,-8.2547 -1.98755,-11.9436 -11.33333,-21.0347 -11.72714,-11.40757 -14.1582,-18.29331 -8.33334,-23.60335 4.11451,-3.75087 10.25208,-5.34856 24.20267,-6.30029 19.39088,-1.32287 40.60109,-7.68297 61.01965,-18.29736 13.37631,-6.95355 19.77769,-13.11398 19.77769,-19.03326 0,-6.15087 -2.63069,-7.90326 -10.70035,-7.12787 -5.40792,0.51964 -8.2291,1.84039 -14.75317,6.90679 -11.31575,8.78746 -13.5971,9.66202 -19.61236,7.51837 -2.71377,-0.9671 -6.64033,-2.95779 -8.72569,-4.42375 -3.34182,-2.34924 -3.6916,-3.23715 -2.94884,-7.48567 2.7716,-15.85324 3.49868,-13.69875 -8.94744,-26.51298 -12.5709,-12.94269 -14.89437,-16.4727 -13.77582,-20.92936 0.97407,-3.88104 5.60338,-5.73986 18.23544,-7.32216 12.8426,-1.60868 20.34224,-4.13466 34.89227,-11.75223 14.80591,-7.75154 25.37569,-17.03331 28.39246,-24.93261 2.62047,-6.86159 1.9146,-10.03759 -2.23085,-10.03759 -4.03687,0 -12.64788,-5.20107 -29.47949,-17.80567 l -14.32051,-10.72412 21.75135,-22.06844 c 27.77665,-28.18158 34.16862,-37.4996 32.35514,-47.1663 -1.00813,-5.37378 -4.11615,-8.42663 -15.07978,-14.81212 -8.14472,-4.74369 -12.3857,-8.99652 -12.3857,-12.42032 0,-0.95532 3.50098,-5.50025 7.77996,-10.09983 17.46434,-18.77285 31.5354,-50.893496 40.99005,-93.569854 10.15005,-45.81521203 16.5657,-43.0889833 29.17794,12.398704 7.19199,31.64124 14.73583,48.63148 33.87278,76.28832 5.23194,7.56122 9.51261,14.23372 9.51261,14.82777 0,0.59406 -6.6,6.59297 -14.66667,13.33092 -8.06666,6.73795 -14.66667,12.84588 -14.66667,13.57319 0,0.72731 4.58466,8.47079 10.18812,17.20773 11.95581,18.64155 26.29386,34.43471 38.45578,42.35851 4.77919,3.11377 8.68944,6.11692 8.68944,6.67366 0,1.58237 -26.68004,25.82224 -32.9661,29.951 -4.56521,2.99849 -6.52365,3.53254 -10.33333,2.81784 -5.86588,-1.10044 -6.06145,0.52748 -1.27808,10.6387 7.62494,16.1178 37.24176,32.14769 66.46095,35.97152 9.1284,1.1946 14.7696,6.75465 13.67803,13.48125 -1.23786,7.628 -6.5731,13.22369 -17.5952,18.45413 -5.66932,2.69032 -9.96627,5.56624 -9.96627,6.67034 0,1.06752 1.23653,4.31328 2.74784,7.21279 l 2.74785,5.27185 -2.9363,6.8256 c -6.23033,14.4828 -13.9931,14.11978 -32.26745,-1.50897 -5.87026,-5.02042 -12.57035,-5.74953 -16.89229,-1.83823 -4.314,3.90412 -3.3168,6.54147 5.64214,14.92211 17.15464,16.04734 39.62523,24.23768 74.05348,26.99189 15.44462,1.23555 20.58013,3.66725 21.34217,10.10565 0.76307,6.44709 -0.86267,9.52696 -9.93967,18.83014 -10.03351,10.28352 -12.98475,15.92513 -11.75629,22.4734 1.03544,5.51941 -0.94191,9.4183 -6.49324,12.80318 -5.43794,3.31575 -13.02196,3.29811 -22.55494,-0.0525 -4.15119,-1.45902 -8.45274,-2.30544 -9.55901,-1.88092 -1.10627,0.42451 -3.26619,2.89856 -4.79983,5.49788 l -2.78843,4.72604 -9.93968,-0.90072 c -5.46683,-0.49539 -9.93968,-0.38794 -9.93968,0.23877 0,2.23742 7.51,8.26846 18.57848,14.91978 17.47252,10.49965 36.75438,15.7759 71.16379,19.47311 49.09173,5.2748 53.6182,13.34766 23.1296,41.25114 -6.34619,5.80811 -11.53854,10.95315 -11.53854,11.43343 0,0.48028 2.55,2.52804 5.66667,4.55058 13.97088,9.0663 16.86536,15.84398 8.66667,20.29374 -3.60173,1.9548 -7.18927,2.29675 -21.24918,2.02539 -11.00905,-0.21247 -17.22648,0.17614 -17.80543,1.11289 -1.37536,2.2254 4.85275,22.96403 7.65734,25.49771 3.62987,3.27925 13.37639,5.76768 40.39727,10.31405 26.54133,4.46568 37.38709,7.24618 38.38243,9.83999 1.16969,3.04816 -2.67752,11.66885 -8.05434,18.04787 -7.04995,8.36399 -16.98366,15.7535 -24.58599,18.28906 -14.08448,4.69753 -16.04802,9.91294 -8.40877,22.33474 2.56667,4.17353 6.76667,11.00293 9.33333,15.17646 5.56413,9.04753 5.71618,10.95989 1.2897,16.22046 -9.62244,11.43563 -23.24303,6.97962 -49.90486,-16.32646 -5.47168,-4.78299 -10.09958,-8.54527 -10.28423,-8.36062 -0.18465,0.18465 0.55341,3.60783 1.64013,7.60706 2.79386,10.28166 2.73206,19.50392 -0.15207,22.69084 -5.16406,5.70623 -13.5544,1.88385 -29.11405,-13.26346 -13.8091,-13.44315 -16.98502,-15.53536 -20.62509,-13.58725 -3.88703,2.08027 -10.84953,10.59904 -10.84953,13.27463 0,2.74672 12.34984,14.93234 21.33333,21.04967 26.68118,18.16858 62.92796,25.17435 102.66667,19.8434 7.7,-1.03296 20.3,-3.36521 28,-5.18279 21.39217,-5.0496 34.41031,-6.75966 36.74004,-4.82616 3.37207,2.79857 2.23609,10.96015 -2.98231,21.42663 -3.77922,7.57994 -7.61481,12.46916 -16.66666,21.24494 -6.46675,6.26952 -11.75773,11.96792 -11.75773,12.6631 0,0.69519 2.95461,3.9803 6.56581,7.30025 14.14762,13.00659 8.83191,23.58481 -12.55518,24.98469 -11.3036,0.73987 -15.34397,2.90993 -15.34397,8.24118 0,2.12312 -0.3727,4.83148 -0.82824,6.01858 -1.50673,3.92648 -8.69757,6.54727 -18.05077,6.57881 -7.70214,0.026 -9.79043,-0.53662 -15.75526,-4.24457 -3.78194,-2.35098 -7.98129,-4.27451 -9.33189,-4.27451 -1.46661,0 -3.98173,2.43354 -6.24474,6.04219 -6.3079,10.05872 -11.63833,9.74892 -25.37183,-1.47457 -4.99616,-4.08304 -12.02201,-9.80812 -15.613,-12.7224 -3.59098,-2.91428 -7.49098,-5.12166 -8.66666,-4.90529 -1.28552,0.23659 -3.13034,3.44947 -4.62803,8.06007 -2.82471,8.69575 -5.15388,9.6794 -10.20025,4.30778 -5.08224,-5.40979 -14.79633,-11.02745 -21.976,-12.70872 -12.23431,-2.86492 -17.62999,-6.08803 -23.65638,-14.13115 -9.58137,-12.78779 -17.32879,-20.59827 -21.19994,-21.3725 -4.09747,-0.81949 -5.79782,-2.37142 -12.3299,-11.25362 -4.35698,-5.92454 -4.56536,-6.75937 -5.49133,-22 -0.93663,-15.41591 -3.1173,-24.50844 -5.87789,-24.50844 -2.25396,0 -12.13197,14.04699 -14.7815,21.01999 -1.36351,3.58846 -2.89784,10.22559 -3.40962,14.74916 l -0.93052,8.22468 -9.16307,4.66975 c -5.03968,2.56836 -10.05858,4.66974 -11.15309,4.66974 -2.86335,0 -9.18653,9.29731 -15.80552,23.23971 -3.15772,6.65149 -6.84877,12.99363 -8.20234,14.09363 -1.75954,1.42992 -5.71032,2 -13.86053,2 h -11.39949 l -3.27026,5.01663 c -5.71942,8.77367 -18.03196,9.72513 -21.69903,1.6768 -2.86127,-6.2798 -6.94654,-4.59877 -23.93302,9.84807 -8.23446,7.00333 -17.05817,12.03623 -21.20657,12.09588 -1.12016,0.0161 -3.37359,-0.90714 -5.00761,-2.05166 z M 213.98642,619.154 c 3.19748,-1.22698 8.83583,-14.02669 7.10013,-16.11808 -1.47467,-1.77686 -3.56264,-0.96434 -8.55745,3.33009 -2.55187,2.19404 -5.86243,7.15465 -5.86243,8.78438 0,0.74348 3.93954,4.84956 4.65286,4.84956 0.25431,0 1.45441,-0.38068 2.66689,-0.84595 z m 193.25169,-9.24928 c 1.15238,-1.15239 2.09524,-2.59239 2.09524,-3.2 0,-1.02972 -9.07251,-10.70477 -10.0381,-10.70477 -1.41876,0 -4.62857,4.56314 -4.62857,6.58009 0,2.7528 6.19527,9.41991 8.75325,9.41991 0.94762,0 2.6658,-0.94285 3.81818,-2.09523 z"
       id="path1-5" />
  </g>
</svg>
